<svg xmlns="http://www.w3.org/2000/svg" viewBox="0 0 1024 1024">
  <rect width="1024" height="1024" rx="120" fill="#efe7c8" />

  <circle cx="642" cy="314" r="302" fill="#ffc400" />
  <circle cx="376" cy="694" r="304" fill="#56bdd2" />

  <path
    d="M170 356C254 252 384 194 520 194c146 0 281 66 352 190-71 123-206 189-352 189-136 0-266-57-350-185Z"
    fill="#efe7c8"
  />
  <path
    d="M176 652c83-127 220-197 361-197 142 0 275 70 344 199-69 128-202 198-344 198-141 0-278-70-361-200Z"
    fill="#efe7c8"
  />

  <circle cx="510" cy="362" r="102" fill="#ffc400" />
  <circle cx="386" cy="650" r="106" fill="#56bdd2" />

  <path
    d="M298 332c71 0 132 44 158 108-31 22-70 35-113 35-42 0-80-12-111-33 25-66 66-110 66-110Z"
    fill="#56bdd2"
    opacity="0.96"
  />
  <path
    d="M723 742c-72 0-131-44-157-108 30-22 69-35 112-35 42 0 80 12 111 33-25 65-66 110-66 110Z"
    fill="#ffc400"
    opacity="0.96"
  />
</svg>
